<svg width="72" height="74" viewBox="0 0 72 74" fill="none" xmlns="http://www.w3.org/2000/svg">
<g filter="url(#filter0_d_55933_89)">
<path d="M59.1867 49.9331C59.1534 49.0669 59.0134 47.1488 59.0134 47.1488C58.5201 44.4881 57.4001 41.8963 55.7734 39.655C54.1467 37.4138 52.0467 35.5781 49.7001 34.3406C48.7667 33.8456 47.7601 33.4263 46.7201 33.0825C46.7067 33.0756 46.6334 33.055 46.6134 33.0481C45.1934 32.5875 43.7067 32.2713 42.2334 32.12L42.3601 31.4738C42.4134 31.1919 42.2401 30.9238 41.9667 30.8688C41.6934 30.8138 41.4334 30.9925 41.3801 31.2744L41.2334 32.0444C40.0534 31.9894 38.9067 32.0375 37.8134 32.1956L37.9067 31.185C37.9334 30.9031 37.7334 30.6487 37.4601 30.6212C37.1867 30.5937 36.9401 30.8 36.9134 31.0819L36.7934 32.3744C35.9067 32.56 35.0534 32.8213 34.2601 33.1513C34.2401 32.4981 34.2001 31.46 34.1601 30.2019L35.5134 29.9269C35.7867 29.8719 35.9601 29.5969 35.9067 29.3219C35.8534 29.04 35.5867 28.8612 35.3201 28.9163L34.1267 29.1638C34.1001 28.3663 34.0734 27.5069 34.0467 26.6131L35.1867 26.4413C35.4601 26.4 35.6467 26.1388 35.6067 25.8569C35.5667 25.575 35.3134 25.3825 35.0401 25.4237L34.0001 25.575C33.9801 24.8806 33.9534 24.1725 33.9334 23.4712C33.9267 23.1687 33.9134 22.8662 33.9067 22.5706C34.3334 22.5019 34.7667 22.4331 35.2201 22.3575C35.4934 22.3094 35.6801 22.0481 35.6334 21.7663C35.5867 21.4844 35.3334 21.2919 35.0601 21.34C34.6534 21.4087 34.2667 21.4706 33.8801 21.5325C33.8534 20.6181 33.8267 19.7381 33.8001 18.9062L35.1801 18.7825C35.4534 18.755 35.6601 18.5075 35.6334 18.2256C35.6067 17.9438 35.3667 17.7306 35.0934 17.7581L33.7667 17.875C33.6867 15.3313 33.6267 13.4819 33.6067 13.255C33.5867 12.9869 33.3734 12.7738 33.1067 12.7738H33.1001C30.0801 12.8356 26.9867 12.8906 23.8867 12.9525C20.3134 13.0212 16.7267 13.09 13.2534 13.1587C12.9801 13.1656 12.7601 13.3994 12.7601 13.6813C12.8401 18.9681 12.7934 24.6125 12.7467 30.0781C12.7001 35.5438 12.6534 41.195 12.7334 46.4888C12.7001 47.5888 12.7001 48.5031 12.6934 49.39C12.6934 50.27 12.6867 51.1844 12.6534 52.2775C12.6467 52.415 12.7001 52.5456 12.7934 52.6488C12.8867 52.745 13.0134 52.8069 13.1467 52.8069C27.4934 53.1094 34.2734 53.2331 44.3134 53.2331C48.3867 53.2331 52.9934 53.2125 58.8601 53.1781C59.0001 53.1781 59.1334 53.1163 59.2267 53.0063C59.3201 52.8963 59.3667 52.7519 59.3534 52.6075C59.2534 51.6656 59.2201 50.7856 59.1867 49.9331ZM46.8334 34.21C47.6734 34.5056 48.4801 34.8563 49.2401 35.2619C51.4467 36.4238 53.4267 38.1562 54.9667 40.2738C56.3801 42.2194 57.3867 44.44 57.9001 46.7363C53.8667 46.7019 49.7201 46.6331 45.5801 46.5575C45.2134 42.4531 45.6467 38.2044 46.8334 34.21ZM13.7401 30.0919C13.7867 24.7981 13.8334 19.3325 13.7601 14.1831C17.0801 14.1144 20.4934 14.0525 23.9001 13.9837C26.8334 13.9287 29.7667 13.8737 32.6267 13.8119C32.6534 14.5681 32.7067 16.0875 32.7667 17.9644L31.1001 18.1156C30.8267 18.1431 30.6201 18.3906 30.6467 18.6725C30.6667 18.9406 30.8867 19.14 31.1467 19.14C31.1601 19.14 31.1734 19.14 31.1934 19.14L32.8067 18.9956C32.8334 19.855 32.8601 20.7625 32.8934 21.6838C32.3401 21.7662 31.7801 21.8556 31.1867 21.9587C30.9134 22.0069 30.7267 22.2681 30.7734 22.55C30.8134 22.8044 31.0267 22.9831 31.2667 22.9831C31.2934 22.9831 31.3201 22.9831 31.3467 22.9763C31.8867 22.8869 32.4134 22.8044 32.9201 22.7219C32.9267 22.9831 32.9334 23.2444 32.9467 23.5056C32.9734 24.255 32.9934 24.9975 33.0134 25.7263L31.2801 25.9875C31.0067 26.0288 30.8201 26.29 30.8601 26.5719C30.8934 26.8263 31.1134 27.0119 31.3534 27.0119C31.3801 27.0119 31.4001 27.0119 31.4267 27.005L33.0467 26.7575C33.0734 27.6788 33.1001 28.5519 33.1267 29.3563L31.6467 29.6588C31.3734 29.7138 31.2001 29.9888 31.2534 30.2638C31.3001 30.5113 31.5067 30.6763 31.7401 30.6763C31.7734 30.6763 31.8067 30.6763 31.8401 30.6694L33.1601 30.4013C33.2267 32.3813 33.2734 33.7494 33.2867 33.9625C33.3001 34.1344 33.3867 34.2856 33.5334 34.375C33.6734 34.4644 33.8534 34.4713 34.0001 34.3956C34.8334 33.99 35.7334 33.6806 36.6934 33.4538L36.4734 35.7913C36.4467 36.0731 36.6467 36.3275 36.9201 36.355C36.9334 36.355 36.9534 36.355 36.9667 36.355C37.2201 36.355 37.4401 36.1556 37.4667 35.8875L37.7134 33.2475C38.7734 33.0825 39.8867 33.0137 41.0401 33.0619L40.4867 35.9219C40.4334 36.2038 40.6067 36.4719 40.8801 36.5269C40.9134 36.5338 40.9467 36.5338 40.9801 36.5338C41.2134 36.5338 41.4201 36.3619 41.4667 36.1213L42.0467 33.1238C43.3401 33.2475 44.6401 33.5019 45.8934 33.88C44.6734 37.9638 44.2201 42.3088 44.5867 46.5163C41.6734 46.4613 38.7667 46.3994 35.8934 46.3444C28.5534 46.1931 20.9734 46.035 13.7267 45.9731C13.6467 40.8444 13.6934 35.3788 13.7401 30.0919ZM13.6667 51.7894C13.6867 50.9094 13.6867 50.1463 13.6934 49.3969C13.6934 48.6544 13.7001 47.8913 13.7201 47.0181C20.9534 47.0869 28.5334 47.2381 35.8667 47.3894C38.9201 47.4513 42.0201 47.52 45.1201 47.575H45.1267C45.1267 47.575 45.1267 47.575 45.1334 47.575C49.4801 47.6575 53.8334 47.7263 58.0667 47.7606C58.1267 48.5306 58.1601 49.2663 58.1867 49.9744C58.2134 50.6688 58.2467 51.3838 58.3067 52.14C38.6001 52.2638 33.2267 52.195 13.6667 51.7894ZM23.3734 29.1019C23.3934 29.1019 23.4201 29.1019 23.4401 29.1019C25.5067 29.1019 27.5467 27.9194 28.6401 26.07C29.5734 24.4888 29.7734 22.5706 29.1734 20.9275C28.4734 19.0369 26.8867 17.7581 24.8001 17.4212C22.5201 17.05 20.1801 17.93 18.8401 19.6625C17.5067 21.3744 17.2667 23.8562 18.2467 25.8431C19.1867 27.7612 21.2467 29.0744 23.3734 29.1019ZM19.6134 20.3019C20.7401 18.8581 22.7134 18.1225 24.6401 18.4388C26.3601 18.7206 27.6667 19.7588 28.2334 21.2919C28.7201 22.6119 28.5467 24.2344 27.7801 25.5269C26.8534 27.0944 25.1267 28.0912 23.3801 28.0706C21.6201 28.05 19.9134 26.9638 19.1267 25.3756C18.3467 23.7669 18.5401 21.6837 19.6134 20.3019Z" fill="white"/>
<rect x="4.5" y="0.5" width="63" height="65" stroke="black"/>
</g>
<defs>
<filter id="filter0_d_55933_89" x="0" y="0" width="72" height="74" filterUnits="userSpaceOnUse" color-interpolation-filters="sRGB">
<feFlood flood-opacity="0" result="BackgroundImageFix"/>
<feColorMatrix in="SourceAlpha" type="matrix" values="0 0 0 0 0 0 0 0 0 0 0 0 0 0 0 0 0 0 127 0" result="hardAlpha"/>
<feOffset dy="4"/>
<feGaussianBlur stdDeviation="2"/>
<feComposite in2="hardAlpha" operator="out"/>
<feColorMatrix type="matrix" values="0 0 0 0 0 0 0 0 0 0 0 0 0 0 0 0 0 0 0.25 0"/>
<feBlend mode="normal" in2="BackgroundImageFix" result="effect1_dropShadow_55933_89"/>
<feBlend mode="normal" in="SourceGraphic" in2="effect1_dropShadow_55933_89" result="shape"/>
</filter>
</defs>
</svg>
