<svg width="64" height="49" viewBox="0 0 64 49" fill="none" xmlns="http://www.w3.org/2000/svg">
<path d="M61.486 11.025L45 4.317C43.41 3.681 41.592 4.128 40.478 5.428C35.972 16.371 23.12 30.787 13.685 30.031H7C2.717 30.031 0 34.608 0 38.891V39.031C0 42.471 1.137 44.783 6.089 46.466C11.063 48.156 28 48.031 28 48.031H60C62.209 48.031 64 46.24 64 44.031V40.031V16.031V14.739C64 13.103 63.005 11.633 61.486 11.025Z" fill="#0484AB"/>
<path d="M45 4.317C43.41 3.681 41.592 4.128 40.478 5.428C35.972 16.371 23.12 30.787 13.685 30.031H7C2.717 30.031 0 34.608 0 38.891V39.031C0 42.471 1.137 44.783 6.089 46.466C7.439 46.924 9.672 47.249 12.207 47.479L52.37 7.31599L45 4.317Z" fill="#059BBF"/>
<path d="M64 38.333C41 38.333 46.5 42.021 33 42.021C19.879 42.021 1.095 38.244 0.0499992 38.031C0.0189992 38.307 0 38.589 0 38.881V39.021C0 42.461 1.137 44.773 6.089 46.456C11.063 48.146 28 48.021 28 48.021H60C62.209 48.021 64 46.23 64 44.021V38.333Z" fill="#259AD7"/>
<path d="M64 44.061C64 46.271 62.21 48.061 60 48.061H28C28 48.061 11.06 48.181 6.09001 46.491C4.03001 45.791 2.63001 44.981 1.70001 44.031C1.80001 44.041 1.89901 44.057 2.00001 44.061C46 46.031 52 44.061 52 44.061H64Z" fill="#E2E4E5"/>
<path d="M0.0509777 38.031C0.0199777 38.307 0.000976562 38.589 0.000976562 38.881V39.021C0.000976562 42.461 1.13798 44.773 6.08998 46.456C7.44098 46.915 9.67898 47.24 12.218 47.47L18.677 41.012C9.21898 39.876 0.742978 38.172 0.0509777 38.031Z" fill="#259AD7"/>
<path d="M32.667 42.031H34.667C34.667 35.551 42.699 28.948 50.584 28.948C55.909 28.948 60.655 27.579 64.001 25.16V22.58C61.031 25.353 56.182 26.948 50.584 26.948C41.542 26.948 32.667 34.419 32.667 42.031Z" fill="#21B2D1"/>
<path d="M21.341 26.914C20.573 27.554 20.396 28.663 20.925 29.51L23.909 34.284C24.196 34.742 24.655 35.065 25.184 35.179C25.713 35.293 26.265 35.188 26.714 34.888L37.97 27.384C38.469 27.052 38.792 26.513 38.851 25.917C38.91 25.321 38.699 24.729 38.275 24.306L33.292 19.323C32.561 18.592 31.392 18.539 30.597 19.201L21.341 26.914Z" fill="#259AD7"/>
<path d="M64 14.739V22.579C61.03 25.359 56.18 26.949 50.58 26.949C48.52 26.949 46.47 27.339 44.53 28.039C38.39 23.509 34.29 17.169 33.87 16.509C36.68 12.879 39.01 8.96898 40.47 5.42898C41.59 4.12898 43.41 3.67898 45 4.31898L61.48 11.029C63 11.629 64 13.109 64 14.739Z" fill="#259AD7"/>
<path d="M23.909 34.285L20.925 29.511C20.698 29.147 20.608 28.736 20.632 28.333C18.225 29.554 15.854 30.198 13.669 30.021H6.98899C4.00899 30.021 1.78899 32.231 0.718994 35.021C1.64999 35.021 15.8 41.108 24.222 34.656C24.105 34.545 23.996 34.424 23.909 34.285Z" fill="#259AD7"/>
<path d="M33.292 19.323C32.561 18.592 31.392 18.538 30.597 19.201L21.34 26.914C20.572 27.554 20.395 28.663 20.924 29.511L23.908 34.285C24.1 34.593 24.375 34.832 24.692 34.995L36.828 22.859L33.292 19.323Z" fill="#259AD7"/>
<path d="M45 4.319L50.97 6.75C50.79 2.521 49.708 0 48 0C47.026 0 44.165 3.869 44.014 4.074C44.347 4.117 44.679 4.19 45 4.319Z" fill="#259AD7"/>
<path d="M45 4.31898C43.41 3.67898 41.59 4.12898 40.47 5.42898C39.01 8.96898 36.68 12.879 33.87 16.509C34.11 16.886 35.552 19.115 37.886 21.801L52.368 7.31998L45 4.31898Z" fill="#259AD7"/>
<path d="M2.00001 44.061C1.90001 44.056 1.80001 44.04 1.70001 44.031C2.63001 44.981 4.03001 45.791 6.09001 46.491C7.48101 46.964 9.81201 47.295 12.445 47.527L15.391 44.581C11.367 44.451 6.93501 44.282 2.00001 44.061Z" fill="#259AD7"/>
<path d="M48.169 20.964C46.73 22.99 43.921 23.467 41.895 22.028L34.149 16.528C33.248 15.888 33.037 14.64 33.676 13.739L36.571 9.66197C37.211 8.76097 38.459 8.54997 39.36 9.18897L47.106 14.689C49.132 16.128 49.608 18.938 48.169 20.964Z" fill="#259AD7"/>
<path d="M39.36 9.18904C38.459 8.54904 37.211 8.76104 36.571 9.66204L33.676 13.739C33.036 14.639 33.248 15.888 34.149 16.528L39.418 20.27L45.873 13.815L39.36 9.18904Z" fill="#259AD7"/>
</svg>
