<svg width="323" height="90" viewBox="0 0 323 90" fill="none" xmlns="http://www.w3.org/2000/svg">
<g clip-path="url(#clip0_55918_156)">
<g filter="url(#filter0_d_55918_156)">
<path d="M50.0129 43.8806C49.9827 43.1194 49.8558 41.4338 49.8558 41.4338C49.4087 39.0956 48.3937 36.8179 46.9196 34.8483C45.4454 32.8787 43.5423 31.2656 41.4156 30.1781C40.5698 29.7431 39.6575 29.3746 38.715 29.0725C38.7029 29.0665 38.6364 29.0483 38.6183 29.0423C37.3314 28.6375 35.9841 28.3596 34.6489 28.2267L34.7637 27.6588C34.8121 27.411 34.655 27.1754 34.4073 27.1271C34.1596 27.0788 33.9239 27.2358 33.8756 27.4835L33.7427 28.1602C32.6733 28.1119 31.6341 28.1542 30.6433 28.2931L30.7279 27.405C30.7521 27.1573 30.5708 26.9337 30.3231 26.9096C30.0754 26.8854 29.8518 27.0667 29.8277 27.3144L29.7189 28.4502C28.9154 28.6133 28.1421 28.8429 27.4231 29.1329C27.405 28.559 27.3687 27.6467 27.3325 26.541L28.5589 26.2994C28.8066 26.251 28.9637 26.0094 28.9154 25.7677C28.8671 25.52 28.6254 25.3629 28.3837 25.4113L27.3023 25.6288C27.2781 24.9279 27.2539 24.1727 27.2298 23.3873L28.2629 23.2362C28.5106 23.2 28.6798 22.9704 28.6435 22.7227C28.6073 22.475 28.3777 22.3058 28.13 22.3421L27.1875 22.475C27.1693 21.8648 27.1452 21.2425 27.1271 20.6262C27.121 20.3604 27.1089 20.0946 27.1029 19.8348C27.4896 19.7744 27.8823 19.714 28.2931 19.6475C28.5408 19.6052 28.71 19.3756 28.6677 19.1279C28.6254 18.8802 28.3958 18.711 28.1481 18.7533C27.7796 18.8137 27.4291 18.8681 27.0787 18.9225C27.0546 18.119 27.0304 17.3456 27.0062 16.6146L28.2568 16.5058C28.5046 16.4817 28.6918 16.2642 28.6677 16.0165C28.6435 15.7687 28.426 15.5815 28.1783 15.6056L26.976 15.7083C26.9035 13.4729 26.8491 11.8477 26.831 11.6483C26.8129 11.4127 26.6196 11.2254 26.3779 11.2254H26.3718C23.635 11.2798 20.8316 11.3281 18.0223 11.3825C14.7839 11.4429 11.5335 11.5033 8.38581 11.5637C8.1381 11.5698 7.93873 11.7752 7.93873 12.0229C8.01123 16.669 7.96893 21.6292 7.92664 26.4323C7.88435 31.2354 7.84206 36.2017 7.91456 40.8538C7.88435 41.8204 7.88435 42.624 7.87831 43.4033C7.87831 44.1767 7.87227 44.9802 7.84206 45.9408C7.83602 46.0617 7.88435 46.1765 7.96893 46.2671C8.05352 46.3517 8.16831 46.406 8.28914 46.406C21.2908 46.6719 27.4352 46.7806 36.5339 46.7806C40.2254 46.7806 44.4002 46.7625 49.7168 46.7323C49.8437 46.7323 49.9646 46.6779 50.0491 46.5813C50.1337 46.4846 50.176 46.3577 50.1639 46.2308C50.0733 45.4031 50.0431 44.6298 50.0129 43.8806ZM38.8177 30.0633C39.5789 30.3231 40.31 30.6313 40.9987 30.9877C42.9985 32.0088 44.7929 33.5312 46.1885 35.3921C47.4693 37.1019 48.3816 39.0533 48.8468 41.0713C45.1916 41.041 41.4337 40.9806 37.6818 40.9142C37.3496 37.3073 37.7423 33.5735 38.8177 30.0633ZM8.82685 26.4444C8.86914 21.7923 8.91143 16.9892 8.84498 12.464C11.8537 12.4035 14.9471 12.3492 18.0344 12.2887C20.6927 12.2404 23.351 12.1921 25.9429 12.1377C25.9671 12.8023 26.0154 14.1375 26.0698 15.7869L24.5593 15.9198C24.3116 15.944 24.1243 16.1615 24.1485 16.4092C24.1666 16.6448 24.366 16.82 24.6016 16.82C24.6137 16.82 24.6258 16.82 24.6439 16.82L26.106 16.6931C26.1302 17.4483 26.1543 18.2458 26.1846 19.0554C25.6831 19.1279 25.1756 19.2065 24.6379 19.2971C24.3902 19.3394 24.221 19.569 24.2633 19.8167C24.2996 20.0402 24.4929 20.1973 24.7104 20.1973C24.7346 20.1973 24.7587 20.1973 24.7829 20.1913C25.2723 20.1127 25.7496 20.0402 26.2087 19.9677C26.2148 20.1973 26.2208 20.4269 26.2329 20.6565C26.2571 21.315 26.2752 21.9675 26.2933 22.6079L24.7225 22.8375C24.4748 22.8737 24.3056 23.1033 24.3418 23.351C24.3721 23.5746 24.5714 23.7377 24.7889 23.7377C24.8131 23.7377 24.8312 23.7377 24.8554 23.7317L26.3235 23.5142C26.3477 24.3238 26.3718 25.091 26.396 25.7979L25.0548 26.0637C24.8071 26.1121 24.65 26.3538 24.6983 26.5954C24.7406 26.8129 24.9279 26.9579 25.1393 26.9579C25.1696 26.9579 25.1998 26.9579 25.23 26.9519L26.4262 26.7163C26.4866 28.4563 26.5289 29.6585 26.541 29.8458C26.5531 29.9969 26.6316 30.1298 26.7646 30.2083C26.8914 30.2869 27.0546 30.2929 27.1875 30.2265C27.9427 29.87 28.7583 29.5981 29.6283 29.3988L29.4289 31.4529C29.4048 31.7006 29.586 31.9242 29.8337 31.9483C29.8458 31.9483 29.8639 31.9483 29.876 31.9483C30.1056 31.9483 30.305 31.7731 30.3291 31.5375L30.5527 29.2175C31.5133 29.0725 32.5223 29.0121 33.5675 29.0544L33.066 31.5677C33.0177 31.8154 33.1748 32.051 33.4225 32.0994C33.4527 32.1054 33.4829 32.1054 33.5131 32.1054C33.7246 32.1054 33.9118 31.9544 33.9541 31.7429L34.4798 29.1087C35.6518 29.2175 36.83 29.441 37.9658 29.7733C36.8602 33.3621 36.4493 37.1804 36.7816 40.8779C34.1414 40.8296 31.5073 40.7752 28.9033 40.7269C22.2514 40.594 15.3821 40.455 8.81477 40.4006C8.74227 35.8935 8.78456 31.0904 8.82685 26.4444ZM8.76039 45.5119C8.77852 44.7385 8.77852 44.0679 8.78456 43.4094C8.78456 42.7569 8.7906 42.0863 8.80873 41.319C15.3639 41.3794 22.2333 41.5123 28.8791 41.6452C31.6462 41.6996 34.4556 41.76 37.265 41.8083H37.271C37.271 41.8083 37.271 41.8083 37.2771 41.8083C41.2162 41.8808 45.1614 41.9413 48.9979 41.9715C49.0523 42.6481 49.0825 43.2946 49.1066 43.9169C49.1308 44.5271 49.161 45.1554 49.2154 45.82C31.3562 45.9288 26.4866 45.8683 8.76039 45.5119ZM17.5571 25.5744C17.5752 25.5744 17.5994 25.5744 17.6175 25.5744C19.4904 25.5744 21.3391 24.5352 22.33 22.91C23.1758 21.5204 23.3571 19.8348 22.8133 18.3908C22.1789 16.7294 20.741 15.6056 18.85 15.3096C16.7837 14.9833 14.6631 15.7567 13.4487 17.2792C12.2404 18.7835 12.0229 20.9646 12.911 22.7106C13.7629 24.3962 15.6298 25.5502 17.5571 25.5744ZM14.1496 17.841C15.1706 16.5723 16.9589 15.9258 18.705 16.2038C20.2637 16.4515 21.4479 17.3638 21.9614 18.711C22.4025 19.871 22.2454 21.2969 21.5506 22.4327C20.7108 23.8102 19.146 24.6862 17.5631 24.6681C15.9681 24.65 14.4214 23.6954 13.7085 22.2998C13.0016 20.886 13.1769 19.0554 14.1496 17.841Z" fill="white"/>
</g>
<path d="M263 19H313V22.1111H263V19Z" fill="white"/>
<path d="M263 31.4444H313V34.5556H263V31.4444Z" fill="white"/>
<path d="M263 43.8889H313V47H263V43.8889Z" fill="white"/>
</g>
<defs>
<filter id="filter0_d_55918_156" x="-4" y="0" width="66" height="66" filterUnits="userSpaceOnUse" color-interpolation-filters="sRGB">
<feFlood flood-opacity="0" result="BackgroundImageFix"/>
<feColorMatrix in="SourceAlpha" type="matrix" values="0 0 0 0 0 0 0 0 0 0 0 0 0 0 0 0 0 0 127 0" result="hardAlpha"/>
<feOffset dy="4"/>
<feGaussianBlur stdDeviation="2"/>
<feComposite in2="hardAlpha" operator="out"/>
<feColorMatrix type="matrix" values="0 0 0 0 0 0 0 0 0 0 0 0 0 0 0 0 0 0 0.25 0"/>
<feBlend mode="normal" in2="BackgroundImageFix" result="effect1_dropShadow_55918_156"/>
<feBlend mode="normal" in="SourceGraphic" in2="effect1_dropShadow_55918_156" result="shape"/>
</filter>
<clipPath id="clip0_55918_156">
<rect width="323" height="90" fill="white"/>
</clipPath>
</defs>
</svg>
