<svg width="73" height="71" viewBox="0 0 73 71" fill="none" xmlns="http://www.w3.org/2000/svg">
<g filter="url(#filter0_d_999_154)">
<path d="M60.0491 47.6634C60.0152 46.8366 59.873 45.0056 59.873 45.0056C59.372 42.4659 58.2345 39.9919 56.5824 37.8525C54.9303 35.7131 52.7975 33.9609 50.4142 32.7797C49.4663 32.3072 48.4439 31.9069 47.3876 31.5788C47.3741 31.5722 47.2996 31.5525 47.2793 31.5459C45.8371 31.1063 44.3272 30.8044 42.8308 30.66L42.9595 30.0431C43.0137 29.7741 42.8376 29.5181 42.56 29.4656C42.2824 29.4131 42.0183 29.5837 41.9642 29.8528L41.8152 30.5878C40.6168 30.5353 39.4522 30.5812 38.3418 30.7322L38.4366 29.7675C38.4637 29.4984 38.2605 29.2556 37.9829 29.2294C37.7053 29.2031 37.4548 29.4 37.4277 29.6691L37.3058 30.9028C36.4053 31.08 35.5387 31.3294 34.7329 31.6444C34.7126 31.0209 34.672 30.03 34.6314 28.8291L36.0058 28.5666C36.2834 28.5141 36.4595 28.2516 36.4053 27.9891C36.3512 27.72 36.0803 27.5494 35.8095 27.6019L34.5975 27.8381C34.5704 27.0769 34.5433 26.2566 34.5163 25.4034L35.6741 25.2394C35.9517 25.2 36.1413 24.9506 36.1006 24.6816C36.06 24.4125 35.8027 24.2287 35.5251 24.2681L34.4689 24.4125C34.4485 23.7497 34.4215 23.0737 34.4012 22.4044C34.3944 22.1156 34.3808 21.8269 34.3741 21.5447C34.8074 21.4791 35.2475 21.4134 35.7079 21.3413C35.9855 21.2953 36.1751 21.0459 36.1277 20.7769C36.0803 20.5078 35.823 20.3241 35.5454 20.37C35.1324 20.4356 34.7397 20.4947 34.347 20.5538C34.3199 19.6809 34.2928 18.8409 34.2657 18.0469L35.6673 17.9288C35.9449 17.9025 36.1548 17.6662 36.1277 17.3972C36.1006 17.1281 35.8569 16.9247 35.5793 16.9509L34.2319 17.0625C34.1506 14.6344 34.0897 12.8691 34.0694 12.6525C34.0491 12.3966 33.8324 12.1931 33.5616 12.1931H33.5548C30.4876 12.2522 27.3459 12.3047 24.1975 12.3637C20.5683 12.4294 16.9256 12.495 13.398 12.5606C13.1204 12.5672 12.897 12.7903 12.897 13.0594C12.9782 18.1059 12.9308 23.4937 12.8834 28.7109C12.836 33.9281 12.7887 39.3225 12.8699 44.3756C12.836 45.4256 12.836 46.2984 12.8293 47.145C12.8293 47.985 12.8225 48.8578 12.7887 49.9013C12.7819 50.0325 12.836 50.1572 12.9308 50.2556C13.0256 50.3475 13.1543 50.4066 13.2897 50.4066C27.8605 50.6953 34.7465 50.8134 44.9433 50.8134C49.0803 50.8134 53.759 50.7937 59.7173 50.7609C59.8595 50.7609 59.9949 50.7019 60.0897 50.5969C60.1845 50.4919 60.2319 50.3541 60.2183 50.2162C60.1168 49.3172 60.0829 48.4772 60.0491 47.6634ZM47.5027 32.655C48.3558 32.9372 49.1751 33.2719 49.947 33.6591C52.1881 34.7681 54.1991 36.4219 55.7631 38.4431C57.1985 40.3003 58.2209 42.42 58.7423 44.6119C54.6459 44.5791 50.4345 44.5134 46.2298 44.4413C45.8574 40.5234 46.2975 36.4678 47.5027 32.655ZM13.8923 28.7241C13.9397 23.6709 13.9871 18.4537 13.9126 13.5384C17.2845 13.4728 20.7512 13.4137 24.211 13.3481C27.1902 13.2956 30.1694 13.2431 33.0741 13.1841C33.1012 13.9059 33.1553 15.3562 33.2163 17.1478L31.5235 17.2922C31.2459 17.3184 31.036 17.5547 31.0631 17.8237C31.0834 18.0797 31.3069 18.27 31.5709 18.27C31.5845 18.27 31.598 18.27 31.6183 18.27L33.2569 18.1322C33.284 18.9525 33.311 19.8187 33.3449 20.6981C32.7829 20.7769 32.2142 20.8622 31.6116 20.9606C31.334 21.0066 31.1444 21.2559 31.1918 21.525C31.2324 21.7678 31.4491 21.9384 31.6928 21.9384C31.7199 21.9384 31.747 21.9384 31.7741 21.9319C32.3225 21.8466 32.8574 21.7678 33.372 21.6891C33.3788 21.9384 33.3855 22.1878 33.3991 22.4372C33.4262 23.1525 33.4465 23.8612 33.4668 24.5569L31.7064 24.8062C31.4288 24.8456 31.2392 25.095 31.2798 25.3641C31.3137 25.6069 31.5371 25.7841 31.7808 25.7841C31.8079 25.7841 31.8282 25.7841 31.8553 25.7775L33.5006 25.5413C33.5277 26.4206 33.5548 27.2541 33.5819 28.0219L32.0788 28.3106C31.8012 28.3631 31.6251 28.6256 31.6793 28.8881C31.7267 29.1244 31.9366 29.2819 32.1735 29.2819C32.2074 29.2819 32.2413 29.2819 32.2751 29.2753L33.6157 29.0194C33.6834 30.9094 33.7308 32.2153 33.7444 32.4187C33.7579 32.5828 33.8459 32.7272 33.9949 32.8125C34.1371 32.8978 34.3199 32.9044 34.4689 32.8322C35.3152 32.445 36.2293 32.1497 37.2043 31.9331L36.9808 34.1644C36.9538 34.4334 37.1569 34.6762 37.4345 34.7025C37.448 34.7025 37.4683 34.7025 37.4819 34.7025C37.7392 34.7025 37.9626 34.5122 37.9897 34.2563L38.2402 31.7362C39.3168 31.5787 40.4475 31.5131 41.6189 31.5591L41.0569 34.2891C41.0027 34.5581 41.1788 34.8141 41.4564 34.8666C41.4902 34.8731 41.5241 34.8731 41.5579 34.8731C41.7949 34.8731 42.0048 34.7091 42.0522 34.4794L42.6413 31.6181C43.9548 31.7362 45.2751 31.9791 46.548 32.34C45.309 36.2381 44.8485 40.3856 45.2209 44.4019C42.2621 44.3494 39.31 44.2903 36.3918 44.2378C28.9371 44.0934 21.2387 43.9425 13.8788 43.8834C13.7975 38.9878 13.8449 33.7706 13.8923 28.7241ZM13.8178 49.4353C13.8381 48.5953 13.8381 47.8669 13.8449 47.1516C13.8449 46.4428 13.8517 45.7144 13.872 44.8809C21.2183 44.9466 28.9168 45.0909 36.3647 45.2353C39.4657 45.2944 42.6142 45.36 45.7626 45.4125H45.7694C45.7694 45.4125 45.7694 45.4125 45.7761 45.4125C50.1907 45.4912 54.6121 45.5569 58.9116 45.5897C58.9725 46.3247 59.0064 47.0269 59.0334 47.7028C59.0605 48.3656 59.0944 49.0481 59.1553 49.77C39.1407 49.8881 33.6834 49.8225 13.8178 49.4353ZM23.6762 27.7791C23.6965 27.7791 23.7235 27.7791 23.7439 27.7791C25.8428 27.7791 27.9147 26.6503 29.0251 24.885C29.973 23.3756 30.1762 21.5447 29.5668 19.9762C28.8558 18.1716 27.2444 16.9509 25.1251 16.6294C22.8095 16.275 20.4329 17.115 19.072 18.7687C17.7178 20.4028 17.4741 22.7719 18.4694 24.6684C19.4241 26.4994 21.5163 27.7528 23.6762 27.7791ZM19.8574 19.3791C21.0017 18.0009 23.0058 17.2987 24.9626 17.6006C26.7095 17.8697 28.0366 18.8606 28.6121 20.3241C29.1064 21.5841 28.9303 23.1328 28.1517 24.3666C27.2105 25.8628 25.4569 26.8144 23.6829 26.7947C21.8954 26.775 20.1621 25.7381 19.3631 24.2222C18.5709 22.6866 18.7673 20.6981 19.8574 19.3791Z" fill="white"/>
</g>
<defs>
<filter id="filter0_d_999_154" x="0" y="0" width="73" height="71" filterUnits="userSpaceOnUse" color-interpolation-filters="sRGB">
<feFlood flood-opacity="0" result="BackgroundImageFix"/>
<feColorMatrix in="SourceAlpha" type="matrix" values="0 0 0 0 0 0 0 0 0 0 0 0 0 0 0 0 0 0 127 0" result="hardAlpha"/>
<feOffset dy="4"/>
<feGaussianBlur stdDeviation="2"/>
<feComposite in2="hardAlpha" operator="out"/>
<feColorMatrix type="matrix" values="0 0 0 0 0 0 0 0 0 0 0 0 0 0 0 0 0 0 0.25 0"/>
<feBlend mode="normal" in2="BackgroundImageFix" result="effect1_dropShadow_999_154"/>
<feBlend mode="normal" in="SourceGraphic" in2="effect1_dropShadow_999_154" result="shape"/>
</filter>
</defs>
</svg>
