<svg width="156" height="50" viewBox="0 0 156 50" fill="none" xmlns="http://www.w3.org/2000/svg">
<path d="M44.36 16.667C46.76 16.667 47.267 16.694 48.493 16.747C49.906 16.814 50.88 17.04 51.72 17.374C52.6 17.707 53.347 18.174 54.08 18.907C54.827 19.64 55.28 20.387 55.627 21.267C55.96 22.107 56.174 23.08 56.24 24.507C56.307 25.774 56.32 26.267 56.32 28.934V31.067C56.32 33.734 56.307 34.227 56.24 35.494C56.217 36.659 55.994 37.764 55.604 38.788L55.626 38.721C55.279 39.601 54.826 40.348 54.093 41.081C53.346 41.828 52.6 42.281 51.72 42.628C50.88 42.961 49.907 43.175 48.493 43.241C47.226 43.308 46.72 43.321 44.053 43.321H41.933C39.266 43.321 38.773 43.308 37.493 43.241C36.328 43.218 35.223 42.995 34.199 42.605L34.266 42.627C33.343 42.274 32.556 41.753 31.907 41.094L31.906 41.093C31.24 40.441 30.714 39.649 30.374 38.764L30.359 38.719C29.992 37.763 29.769 36.657 29.746 35.502V35.492C29.693 34.45 29.663 33.229 29.663 32.002C29.663 31.776 29.664 31.55 29.666 31.325V31.359V28.626C29.666 26.226 29.693 25.719 29.746 24.493C29.813 23.08 30.039 22.106 30.359 21.266C30.706 20.386 31.159 19.639 31.906 18.906C32.551 18.239 33.34 17.716 34.223 17.387L34.266 17.373C35.221 17.002 36.326 16.774 37.481 16.747H37.493C38.72 16.694 39.226 16.667 41.626 16.667H44.36ZM44.387 19.067H41.6C39.293 19.067 38.8 19.094 37.6 19.147C36.307 19.2 35.6 19.414 35.133 19.6C34.506 19.84 34.066 20.133 33.6 20.6C33.134 21.067 32.84 21.507 32.6 22.133C32.427 22.6 32.2 23.306 32.147 24.613C32.094 25.813 32.067 26.293 32.067 28.613V31.386C32.067 33.706 32.094 34.186 32.147 35.386C32.2 36.679 32.414 37.386 32.6 37.853C32.84 38.48 33.133 38.92 33.6 39.386C34.067 39.852 34.507 40.146 35.133 40.386C35.6 40.573 36.306 40.786 37.613 40.839C38.906 40.906 39.373 40.919 42.253 40.919H43.733C46.626 40.919 47.08 40.906 48.386 40.839C49.679 40.786 50.386 40.572 50.853 40.386C51.48 40.146 51.92 39.853 52.386 39.386C52.852 38.919 53.146 38.479 53.386 37.853C53.573 37.386 53.786 36.68 53.839 35.386C53.906 34.079 53.919 33.626 53.919 30.733V29.266C53.919 26.373 53.906 25.906 53.839 24.599C53.786 23.306 53.572 22.599 53.386 22.132C53.16 21.531 52.819 21.018 52.387 20.6L52.386 20.599C51.966 20.166 51.454 19.825 50.881 19.608L50.853 19.599C50.121 19.323 49.275 19.158 48.391 19.146H48.386C47.358 19.094 46.155 19.064 44.944 19.064C44.748 19.064 44.552 19.065 44.356 19.066H44.386L44.387 19.067ZM43 23.147C46.781 23.147 49.847 26.212 49.847 29.994C49.847 33.776 46.782 36.841 43 36.841C39.219 36.841 36.153 33.776 36.153 29.994C36.153 26.212 39.218 23.147 43 23.147ZM43 25.547C40.544 25.547 38.553 27.538 38.553 29.994C38.553 32.45 40.544 34.441 43 34.441C45.456 34.441 47.447 32.45 47.447 29.994C47.447 27.538 45.456 25.547 43 25.547ZM50.107 21.28C50.991 21.28 51.707 21.996 51.707 22.88C51.707 23.764 50.991 24.48 50.107 24.48C49.223 24.48 48.507 23.764 48.507 22.88C48.507 21.996 49.223 21.28 50.107 21.28Z" fill="white"/>
<path d="M107.333 21.84C106.333 22.333 105.333 22.507 104.16 22.667C105.333 22 106.16 21 106.493 19.667C105.488 20.275 104.317 20.738 103.07 20.989L103 21.001C101.969 19.987 100.56 19.355 99.004 19.334H99C96.16 19.334 93.667 21.841 93.667 24.841C93.667 25.334 93.667 25.668 93.84 26.001C89.262 25.823 85.221 23.664 82.529 20.362L82.507 20.334C82.082 21.06 81.831 21.932 81.831 22.863C81.831 22.972 81.834 23.081 81.841 23.189L81.84 23.174C81.874 25.052 82.849 26.695 84.313 27.655L84.334 27.668C83.494 27.668 82.667 27.335 81.827 27.001C81.827 29.668 83.667 31.841 86.16 32.334C85.667 32.507 85.16 32.507 84.667 32.507C84.334 32.507 84 32.507 83.667 32.334C84.334 34.507 86.334 36.174 88.84 36.174C87.04 37.629 84.724 38.509 82.203 38.509C82.132 38.509 82.061 38.508 81.99 38.507H82.001H80.668C83.033 40.016 85.904 40.936 88.984 41H89.001C99.001 41 104.508 32.667 104.508 25.493V24.826C105.655 24.036 106.601 23.039 107.311 21.882L107.335 21.84H107.333Z" fill="white"/>
<path d="M140 16.667C132.657 16.694 126.714 22.653 126.714 30C126.714 35.599 130.166 40.393 135.057 42.368L135.146 42.4C135.013 41.347 134.919 39.733 135.186 38.573L136.746 31.946C136.746 31.946 136.346 31.146 136.346 29.973C136.346 28.12 137.426 26.746 138.773 26.746C139.906 26.746 140.466 27.599 140.466 28.613C140.466 29.76 139.733 31.466 139.346 33.053C139.026 34.386 140.013 35.466 141.333 35.466C143.706 35.466 145.52 32.973 145.52 29.373C145.52 26.173 143.227 23.96 139.947 23.96C139.871 23.956 139.783 23.954 139.694 23.954C136.505 23.954 133.921 26.539 133.921 29.727C133.921 29.729 133.921 29.731 133.921 29.733C133.921 30.88 134.361 32.106 134.908 32.773C135.015 32.906 135.028 33.026 134.988 33.16L134.615 34.667C134.562 34.907 134.415 34.974 134.175 34.854C132.495 34.067 131.455 31.654 131.455 29.681C131.455 25.481 134.522 21.628 140.282 21.628C144.895 21.628 148.509 24.908 148.509 29.321C148.509 33.921 145.602 37.614 141.576 37.614C140.243 37.614 138.963 36.907 138.536 36.081L137.696 39.241C137.265 40.578 136.704 41.739 136.008 42.804L136.042 42.748C137.212 43.12 138.558 43.335 139.953 43.335C147.317 43.335 153.286 37.365 153.286 30.002C153.286 22.655 147.344 16.696 140.004 16.669H140.001L140 16.667Z" fill="white"/>
</svg>
