<svg width="188" height="50" viewBox="0 0 188 50" fill="none" xmlns="http://www.w3.org/2000/svg">
<path d="M69.3601 16.667C71.7601 16.667 72.2671 16.694 73.4931 16.747C74.9061 16.814 75.8801 17.04 76.7201 17.374C77.6001 17.707 78.3471 18.174 79.0801 18.907C79.8271 19.64 80.2801 20.387 80.6271 21.267C80.9601 22.107 81.1741 23.08 81.2401 24.507C81.3071 25.774 81.3201 26.267 81.3201 28.934V31.067C81.3201 33.734 81.3071 34.227 81.2401 35.494C81.2171 36.659 80.9941 37.764 80.6041 38.788L80.6261 38.721C80.2791 39.601 79.8261 40.348 79.0931 41.081C78.3461 41.828 77.6001 42.281 76.7201 42.628C75.8801 42.961 74.9071 43.175 73.4931 43.241C72.2261 43.308 71.7201 43.321 69.0531 43.321H66.9331C64.2661 43.321 63.7731 43.308 62.4931 43.241C61.3281 43.218 60.2231 42.995 59.1991 42.605L59.2661 42.627C58.3431 42.274 57.5561 41.753 56.9071 41.094L56.9061 41.093C56.2401 40.441 55.7141 39.649 55.3741 38.764L55.3591 38.719C54.9921 37.763 54.7691 36.657 54.7461 35.502V35.492C54.6931 34.45 54.6631 33.229 54.6631 32.002C54.6631 31.776 54.6641 31.55 54.6661 31.325V31.359V28.626C54.6661 26.226 54.6931 25.719 54.7461 24.493C54.8131 23.08 55.0391 22.106 55.3591 21.266C55.7061 20.386 56.1591 19.639 56.9061 18.906C57.5511 18.239 58.3401 17.716 59.2231 17.387L59.2661 17.373C60.2211 17.002 61.3261 16.774 62.4811 16.747H62.4931C63.7201 16.694 64.2261 16.667 66.6261 16.667H69.3601ZM69.3871 19.067H66.6001C64.2931 19.067 63.8001 19.094 62.6001 19.147C61.3071 19.2 60.6001 19.414 60.1331 19.6C59.5061 19.84 59.0661 20.133 58.6001 20.6C58.1341 21.067 57.8401 21.507 57.6001 22.133C57.4271 22.6 57.2001 23.306 57.1471 24.613C57.0941 25.813 57.0671 26.293 57.0671 28.613V31.386C57.0671 33.706 57.0941 34.186 57.1471 35.386C57.2001 36.679 57.4141 37.386 57.6001 37.853C57.8401 38.48 58.1331 38.92 58.6001 39.386C59.0671 39.852 59.5071 40.146 60.1331 40.386C60.6001 40.573 61.3061 40.786 62.6131 40.839C63.9061 40.906 64.3731 40.919 67.2531 40.919H68.7331C71.6261 40.919 72.0801 40.906 73.3861 40.839C74.6791 40.786 75.3861 40.572 75.8531 40.386C76.4801 40.146 76.9201 39.853 77.3861 39.386C77.8521 38.919 78.1461 38.479 78.3861 37.853C78.5731 37.386 78.7861 36.68 78.8391 35.386C78.9061 34.079 78.9191 33.626 78.9191 30.733V29.266C78.9191 26.373 78.9061 25.906 78.8391 24.599C78.7861 23.306 78.5721 22.599 78.3861 22.132C78.1601 21.531 77.8191 21.018 77.3871 20.6L77.3861 20.599C76.9661 20.166 76.4541 19.825 75.8811 19.608L75.8531 19.599C75.1211 19.323 74.2751 19.158 73.3911 19.146H73.3861C72.3581 19.094 71.1551 19.064 69.9441 19.064C69.7481 19.064 69.5521 19.065 69.3561 19.066H69.3861L69.3871 19.067ZM68.0001 23.147C71.7811 23.147 74.8471 26.212 74.8471 29.994C74.8471 33.776 71.7821 36.841 68.0001 36.841C64.2191 36.841 61.1531 33.776 61.1531 29.994C61.1531 26.212 64.2181 23.147 68.0001 23.147ZM68.0001 25.547C65.5441 25.547 63.5531 27.538 63.5531 29.994C63.5531 32.45 65.5441 34.441 68.0001 34.441C70.4561 34.441 72.4471 32.45 72.4471 29.994C72.4471 27.538 70.4561 25.547 68.0001 25.547ZM75.1071 21.28C75.9911 21.28 76.7071 21.996 76.7071 22.88C76.7071 23.764 75.9911 24.48 75.1071 24.48C74.2231 24.48 73.5071 23.764 73.5071 22.88C73.5071 21.996 74.2231 21.28 75.1071 21.28Z" fill="white"/>
<path d="M133.333 19.84C132.333 20.333 131.333 20.507 130.16 20.667C131.333 20 132.16 19 132.493 17.667C131.488 18.275 130.317 18.738 129.07 18.989L129 19.001C127.969 17.987 126.56 17.355 125.004 17.334H125C122.16 17.334 119.667 19.841 119.667 22.841C119.667 23.334 119.667 23.668 119.84 24.001C115.262 23.823 111.221 21.664 108.529 18.362L108.507 18.334C108.082 19.06 107.831 19.932 107.831 20.863C107.831 20.972 107.834 21.081 107.841 21.189L107.84 21.174C107.874 23.052 108.849 24.695 110.313 25.655L110.334 25.668C109.494 25.668 108.667 25.335 107.827 25.001C107.827 27.668 109.667 29.841 112.16 30.334C111.667 30.507 111.16 30.507 110.667 30.507C110.334 30.507 110 30.507 109.667 30.334C110.334 32.507 112.334 34.174 114.84 34.174C113.04 35.629 110.724 36.509 108.203 36.509C108.132 36.509 108.061 36.508 107.99 36.507H108.001H106.668C109.033 38.016 111.904 38.936 114.984 39H115.001C125.001 39 130.508 30.667 130.508 23.493V22.826C131.655 22.036 132.601 21.039 133.311 19.882L133.335 19.84H133.333Z" fill="white"/>
<path d="M172 16.667C164.657 16.694 158.714 22.653 158.714 30C158.714 35.599 162.166 40.393 167.057 42.368L167.146 42.4C167.013 41.347 166.919 39.733 167.186 38.573L168.746 31.946C168.746 31.946 168.346 31.146 168.346 29.973C168.346 28.12 169.426 26.746 170.773 26.746C171.906 26.746 172.466 27.599 172.466 28.613C172.466 29.76 171.733 31.466 171.346 33.053C171.026 34.386 172.013 35.466 173.333 35.466C175.706 35.466 177.52 32.973 177.52 29.373C177.52 26.173 175.227 23.96 171.947 23.96C171.871 23.956 171.783 23.954 171.694 23.954C168.505 23.954 165.921 26.539 165.921 29.727C165.921 29.729 165.921 29.731 165.921 29.733C165.921 30.88 166.361 32.106 166.908 32.773C167.015 32.906 167.028 33.026 166.988 33.16L166.615 34.667C166.562 34.907 166.415 34.974 166.175 34.854C164.495 34.067 163.455 31.654 163.455 29.681C163.455 25.481 166.522 21.628 172.282 21.628C176.895 21.628 180.509 24.908 180.509 29.321C180.509 33.921 177.602 37.614 173.576 37.614C172.243 37.614 170.963 36.907 170.536 36.081L169.696 39.241C169.265 40.578 168.704 41.739 168.008 42.804L168.042 42.748C169.212 43.12 170.558 43.335 171.953 43.335C179.317 43.335 185.286 37.365 185.286 30.002C185.286 22.655 179.344 16.696 172.004 16.669H172.001L172 16.667Z" fill="white"/>
</svg>
