<svg width="60" height="67" viewBox="0 0 60 67" fill="none" xmlns="http://www.w3.org/2000/svg">
<path d="M42.7397 1.88257C35.5528 0.0361903 28.9768 -0.457912 23.1643 0.426271C19.2355 0.926231 15.5584 2.47387 12.5987 4.87319C10.2607 6.96741 8.5125 9.54233 7.50208 12.3801L7.27301 12.9695C7.03441 13.611 6.77671 14.2438 6.51901 14.8853C5.97598 16.1727 5.52331 17.49 5.16372 18.8294C4.82943 20.1088 4.79367 21.4375 5.05873 22.7302C5.17326 23.259 5.30689 23.7184 5.44051 24.1345C5.66132 24.5732 5.76516 25.053 5.7436 25.5349C5.72204 26.0169 5.5757 26.4874 5.31643 26.9084C4.5516 28.3116 3.60995 29.6293 2.5104 30.8352C2.35769 31.0086 2.17635 31.1819 1.99501 31.364C1.04057 32.3348 -0.36244 33.6698 0.0861425 35.4295C0.226479 36.0967 0.544171 36.7227 1.01159 37.2529C1.479 37.7832 2.08199 38.2017 2.7681 38.4721L2.97807 38.5415C3.17824 38.5954 3.37052 38.6711 3.55073 38.7668C3.55491 38.8014 3.55491 38.8363 3.55073 38.8709C3.55073 39.2349 3.48392 39.7377 3.4362 40.1625C3.31212 41.1507 3.23577 41.7488 3.58891 42.2256C3.88342 42.5841 4.20218 42.9258 4.54334 43.2484C4.16283 43.6847 3.9817 44.2372 4.03749 44.7914C4.23826 45.4219 4.62822 45.9891 5.16372 46.4298C5.39061 46.6547 5.59803 46.8953 5.7841 47.1492C5.71287 47.4254 5.62363 47.6975 5.51686 47.9641C5.14732 48.8234 4.95639 49.7374 4.95375 50.66C5.13509 53.0351 7.21575 54.6214 11.1289 55.3669C13.4201 55.7448 15.7519 55.8786 18.0772 55.7657C18.5639 55.7657 19.1461 55.7657 19.5088 55.7657C19.9208 56.6592 20.231 57.5887 20.4346 58.5396C20.5492 59.0164 20.6637 59.4931 20.7973 59.9179C21.37 61.8249 22.4962 65.7344 22.5057 65.7344L22.8684 67L51.5014 54.6214L51.1578 53.7026C51.1578 53.6506 48.934 47.6347 50.6233 43.6038C51.5831 41.695 52.7332 39.8699 54.0593 38.1514C56.703 34.4673 59.5663 30.3064 59.9195 26.2496C60.3585 20.3724 59.5663 6.2168 42.7397 1.88257ZM57.5334 26.1022C57.2662 29.5696 54.4888 33.5138 52.0359 36.9725C50.6222 38.8092 49.4016 40.7624 48.3899 42.8063C46.8056 46.5684 47.97 51.4748 48.5808 53.4512L24.4146 63.8533C24.0328 62.5444 23.4602 60.5073 23.0689 59.2851C22.9448 58.8863 22.8398 58.4182 22.7348 58.0021C22.4851 56.7131 22.0319 55.4635 21.3891 54.292C20.9977 53.6939 20.3678 53.5812 19.1557 53.5812H18.039C15.8995 53.6937 13.7528 53.5744 11.6443 53.2258C7.51162 52.437 7.40663 50.972 7.36846 50.4953C7.40098 49.8563 7.54932 49.2266 7.8075 48.6315C8.03009 48.1337 8.16535 47.6072 8.20836 47.0712C8.09128 46.2728 7.66495 45.5383 7.00577 44.9995C6.86261 44.8521 6.67172 44.6441 6.55719 44.4967C6.68392 44.3288 6.83845 44.1796 7.01532 44.0546L8.02701 43.3264L7.07258 42.4596C6.56673 42.0002 5.98453 41.4454 5.70775 41.1593C5.70775 40.9513 5.76501 40.6219 5.79364 40.3878C5.87135 39.8792 5.91596 39.3669 5.92726 38.8535C5.91941 38.2933 5.69992 37.7525 5.30551 37.3217C4.91111 36.8909 4.36575 36.5963 3.76071 36.487L3.57936 36.4264C3.25523 36.2863 2.97366 36.0765 2.75909 35.8151C2.54452 35.5538 2.40346 35.2488 2.34815 34.9267C2.18589 34.3026 2.97807 33.5224 3.67481 32.8376C3.88478 32.6296 4.09476 32.4302 4.2761 32.2308C5.48412 30.897 6.52155 29.443 7.36846 27.8966C7.76393 27.238 7.99617 26.5088 8.04893 25.7602C8.10169 25.0115 7.97368 24.2614 7.67387 23.5624C7.55934 23.1983 7.43527 22.7909 7.33983 22.3228C7.13068 21.3319 7.15998 20.3118 7.42572 19.3322C7.7776 18.0837 8.21429 16.8562 8.73329 15.6567C9.01008 14.9979 9.27732 14.3391 9.51593 13.6717C9.58274 13.481 9.65909 13.2989 9.7259 13.1169C10.6157 10.6048 12.1537 8.32225 14.2117 6.45951C16.8401 4.37039 20.0792 3.0184 23.5365 2.56738C28.9959 1.70053 35.2283 2.22064 42.0621 3.98034C56.703 7.73378 58.0392 19.4535 57.5334 26.1022ZM32.575 12.5101H30.1889V8.25388H32.575V12.5101ZM22.3435 16.3502L19.0316 13.3336L20.721 11.7993L24.0328 14.8072L22.3435 16.3502ZM15.1089 21.9414H19.7952V24.1085H15.1089V21.9414ZM42.9592 21.9414H47.6455V24.1085H42.9592V21.9414ZM40.4109 16.3502L38.7311 14.8246L42.0334 11.8166L43.7228 13.3336L40.4109 16.3502ZM31.382 14.4258C29.3563 14.4357 27.3875 15.0354 25.7649 16.1367C24.1423 17.2381 22.9514 18.7831 22.3672 20.5447C21.7829 22.3063 21.8362 24.1917 22.5191 25.9238C23.202 27.6559 24.4786 29.1434 26.1612 30.1677V30.8872C26.1607 31.5587 26.317 32.2226 26.6197 32.8353C26.9224 33.4479 27.3647 33.9953 27.9174 34.4413V35.5335C27.8925 35.9658 27.9648 36.3982 28.1299 36.8044C28.295 37.2105 28.5493 37.5819 28.8774 37.8958C29.2056 38.2098 29.6007 38.4599 30.0386 38.6307C30.4766 38.8016 30.9483 38.8897 31.4249 38.8897C31.9016 38.8897 32.3732 38.8016 32.8112 38.6307C33.2492 38.4599 33.6442 38.2098 33.9724 37.8958C34.3005 37.5819 34.5549 37.2105 34.7199 36.8044C34.885 36.3982 34.9573 35.9658 34.9324 35.5335V34.4413C35.4799 33.9929 35.9168 33.4445 36.2145 32.832C36.5123 32.2195 36.6641 31.5567 36.66 30.8872V30.1677C38.3518 29.1451 39.636 27.6548 40.3224 25.9175C41.0087 24.1802 41.0607 22.2883 40.4707 20.5221C39.8806 18.7558 38.6799 17.2092 37.0463 16.1111C35.4128 15.0131 33.4333 14.4222 31.4011 14.4258H31.382ZM31.382 36.5564C31.0882 36.5542 30.807 36.4478 30.5984 36.2599C30.3898 36.0721 30.2702 35.8176 30.2653 35.5508C30.6354 35.6235 31.0128 35.6613 31.3915 35.6635C31.7639 35.6617 32.135 35.624 32.4986 35.5508C32.4974 35.684 32.4673 35.8157 32.41 35.9383C32.3527 36.0609 32.2694 36.1721 32.1648 36.2655C32.0603 36.3588 31.9365 36.4326 31.8005 36.4825C31.6645 36.5324 31.5191 36.5575 31.3724 36.5564H31.382ZM34.8752 28.6161L34.2644 28.9281V30.8872C34.2644 31.5769 33.9627 32.2384 33.4257 32.7261C32.8887 33.2138 32.1604 33.4878 31.4011 33.4878C30.6417 33.4878 29.9134 33.2138 29.3764 32.7261C28.8394 32.2384 28.5378 31.5769 28.5378 30.8872V28.9368L27.9365 28.6247C26.5742 27.9257 25.5053 26.8367 24.8964 25.5276C24.2876 24.2186 24.1732 22.7633 24.5711 21.389C24.969 20.0147 25.8568 18.7988 27.0959 17.9311C28.335 17.0634 29.8555 16.5928 31.4201 16.5928C32.9848 16.5928 34.5053 17.0634 35.7444 17.9311C36.9835 18.7988 37.8713 20.0147 38.2692 21.389C38.6671 22.7633 38.5527 24.2186 37.9439 25.5276C37.335 26.8367 36.266 27.9257 34.9038 28.6247L34.8752 28.6161Z" fill="#259AD7"/>
</svg>
